<?xml version="1.0" encoding="UTF-8"?>
<svg id="Livello_2" data-name="Livello 2" xmlns="http://www.w3.org/2000/svg" viewBox="0 0 500.99 419.05">
  <defs>
    <style>
      .cls-1 {
        fill: #89d7fb;
        stroke: #211a2d;
      }

      .cls-1, .cls-2 {
        stroke-width: 14.26px;
      }

      .cls-1, .cls-2, .cls-3, .cls-4 {
        stroke-linecap: round;
        stroke-linejoin: round;
      }

      .cls-2 {
        fill: #d1ff5c;
      }

      .cls-2, .cls-3, .cls-4 {
        stroke: #604c85;
      }

      .cls-3 {
        stroke-width: 10.97px;
      }

      .cls-3, .cls-4 {
        fill: none;
      }

      .cls-4 {
        stroke-width: 12.06px;
      }

      .cls-5 {
        fill: #604c85;
      }
    </style>
  </defs>
  <g id="Livello_1-2" data-name="Livello 1">
    <path class="cls-5" d="M27.27.55c14.69-4.47,5.79,19.5,12.06,21.93,4.42,1.71,20.67-3.58,21.38,4.93.95,11.42-22.98,7.16-24.12,8.77-1.98,2.79,3.9,20.58-4.93,22.48-12.83,2.77-6.2-21.21-8.77-23.03S2.57,39.22.4,30.71c-3.79-14.91,20.2-3.67,23.03-10.97,1.49-3.84-2.75-17.19,3.84-19.19Z"/>
    <path class="cls-2" d="M195.6,56.04c192.65-16.66,309.39,213.83,120.62,316.04-42.86,23.21-89.54,28.22-137.07,22.15-9.19-1.17-24.51-7.38-31.8-7.46-22.81-.24-71.28,20.76-97.6,24.12-2.73.35-12.72,2.25-14.26-.22-6.03-9.7,23.86-65.23,22.15-77.86-.64-4.77-23.61-36.36-28.51-47.15C-22.46,171.92,84.82,65.62,195.6,56.04Z"/>
    <path class="cls-1" d="M229.59,303.15l-.79-.79-76.2-76.98,78.15-78.72.2,55.45,135.58,2.47-1.79,42.49-134.49.9c-2.14,2.16.38,45.5-.67,52.96-.1.74.08,1.51,0,2.23Z"/>
    <line class="cls-4" x1="467.28" y1="104.74" x2="467.48" y2="161.75"/>
    <line class="cls-4" x1="441.24" y1="133.42" x2="494.96" y2="132.06"/>
    <line class="cls-4" x1="445.16" y1="324.07" x2="446.72" y2="381.07"/>
    <line class="cls-4" x1="420.41" y1="351.83" x2="473.03" y2="351.56"/>
    <line class="cls-3" x1="404.89" y1="11.52" x2="406.29" y2="52.09"/>
    <line class="cls-3" x1="382.03" y1="30.49" x2="430.26" y2="30.26"/>
  </g>
</svg>