<?xml version="1.0" encoding="UTF-8"?>
<svg id="Livello_2" data-name="Livello 2" xmlns="http://www.w3.org/2000/svg" viewBox="0 0 344.35 54.54">
  <defs>
    <style>
      .cls-1 {
        fill: #d1ff5c;
      }
    </style>
  </defs>
  <g id="Livello_1-2" data-name="Livello 1">
    <g>
      <path class="cls-1" d="M7.86,45.38c.91-1.79-12.58-40.58-6.08-38.81,2.25.38,8.01-1.28,8.37,2.26,1.14,1.53,5.44,36.23,8.73,34.74,6.25.7,5.46-37.59,12.08-37,2.11.41,9.04-1.48,7.75,2.87,0,0-8.29,35.94-8.29,35.94-1.32,8.48-7.61,7.93-13.97,7.75-4.91,0-7.27-2-8.58-7.75Z"/>
      <path class="cls-1" d="M40.34,20.14c-.34-5.36,12.41-2.23,15.1-3.02,11.68-1.21,7.15,15.27,8,21.97-.4,9.34,10.54,2.28,11.46,8.66.18,2.2-.02,5.45-2.98,5.38-31,2.91-11.7-24.68-21.57-27.36-4.55-.16-11.36,1.63-10-5.64ZM51.47,5.95c-.12-7.91,12.3-7.95,12.19,0,.11,7.9-12.3,7.86-12.19,0Z"/>
      <path class="cls-1" d="M81.66,50.95c-2.26-.95-3.24-2.62-3.24-5.13,1.16-1.82-2.85-41.24,2.58-39.25,2.19.33,7.96-1.28,7.68,2.58,0,0,0,10.62,0,10.62,34.99-18.43,36.09,50.98-7.02,31.17ZM95.73,44.69c11.02,1.72,11.5-20.32.33-18.84-4.62,0-7.38,1.96-7.38,7.46,0,5.57-1.6,12.08,7.06,11.39Z"/>
      <path class="cls-1" d="M117.26,35.3c-2.37-23.6,36.06-26.01,34.63-2.95,0,4-.91,5.97-4.69,5.97h-19.9c-1.53,7.76,14.55,7.95,19.83,6.51,2.67-.34,2.12,3.51,2.15,5.2.08,3.08-7.38,4.12-12.4,4-12.33,0-19.61-6.07-19.61-18.73ZM143.02,31.23c.25-8.36-14.98-8.25-15.5,0h15.5Z"/>
      <path class="cls-1" d="M156.84,48.76c-2.42-10.9,21.1,2.65,22.77-6.26-2.18-7.49-23.35.86-22.81-14.84-3.47-12.42,27.69-15.37,30.27-5.97.21,2.3-.21,5.05-3.38,4.33-1.13-.42-17.81-3.47-17.06,1.56-.55,3.97,8.82,3.26,11.39,4.04,7.49.98,11.49,3.2,11.49,10.77,3.34,13.17-29.39,15.72-32.67,6.37Z"/>
      <path class="cls-1" d="M194.34,50.55c1.18-1.66-2.89-46.32,2.58-43.98,2.19.32,7.96-1.27,7.68,2.58,0,0,0,14.3,0,14.3h1.16c3.96-11.74,25.68-8.15,23.02,6.73-.98,2.22,2.56,24.01-2.62,22.95-2.2-.33-7.93,1.27-7.64-2.58,0,0,0-16.84,0-16.84,1.42-10.36-15.17-10.47-13.93,0-.86,2.24,2.36,20.29-2.58,19.42-2.15-.34-8.01,1.28-7.68-2.58Z"/>
      <path class="cls-1" d="M232.38,42.62c-1.06-13.13,14.75-11.33,23.65-11.2,1.89-12.61-18.24-.95-19.32-8.44-1.11-5.92,5-6.28,13.61-6.59,9.57,0,15.75,2.07,15.75,12.59-.92,1.96,2.36,25.11-2.33,24.15-5.65.44-6.81-.25-7.53-6.04-3.55,10.28-24.87,9.61-23.83-4.47ZM247.41,46.18c4.85.45,9.34-2.34,8.62-7.71h-9.71c-5.78-.07-5.49,8.3,1.09,7.71Z"/>
      <path class="cls-1" d="M282.22,50.55c.31,3.85-5.5,2.28-7.68,2.58-5.34,1.75-1.48-31.61-2.58-33.43-.3-3.78,5.26-2.31,7.42-2.58,3.63-.26,2.52,4.93,2.84,7.09h1.46c4.63-13.59,26.05-7.9,23.32,7.31.96,5.9-9.57,6.21-10,2.07.36-12.08-16.21-9.77-14.77,3.13,0,0,0,13.82,0,13.82Z"/>
      <path class="cls-1" d="M309.68,35.3c-2.37-23.6,36.06-26.01,34.63-2.95,0,4-.91,5.97-4.69,5.97h-19.9c-1.53,7.76,14.55,7.95,19.83,6.51,2.67-.34,2.12,3.51,2.15,5.2.08,3.08-7.38,4.12-12.4,4-12.33,0-19.61-6.07-19.61-18.73ZM335.43,31.23c.25-8.36-14.98-8.25-15.5,0h15.5Z"/>
    </g>
  </g>
</svg>