<?xml version="1.0" encoding="UTF-8"?>
<svg id="Livello_2" data-name="Livello 2" xmlns="http://www.w3.org/2000/svg" viewBox="0 0 211.63 241.83">
  <defs>
    <style>
      .cls-1 {
        fill: #fbf4c4;
      }

      .cls-2 {
        fill: #99bfd3;
      }

      .cls-3 {
        fill: #feb38f;
      }

      .cls-4, .cls-5 {
        stroke: #26282d;
      }

      .cls-4, .cls-5, .cls-6 {
        fill: none;
        stroke-linecap: round;
        stroke-linejoin: round;
      }

      .cls-4, .cls-6 {
        stroke-width: 5.82px;
      }

      .cls-5 {
        stroke-width: 7.41px;
      }

      .cls-6 {
        stroke: #26292d;
      }
    </style>
  </defs>
  <g id="Livello_1-2" data-name="Livello 1">
    <g id="Oggetto_generativo" data-name="Oggetto generativo">
      <g>
        <path class="cls-3" d="M80.95,148.17l.25-.06-.08.62c7.32,23.53,41.43,23.61,49.06-.13l1.28-.18c32.07,7.79,67.52,8.19,75.68,48.16,1.14,5.6,2.24,33.13,1.06,38.11-.65,2.75-1.12,3.92-4.23,4.23H7.63c-3.13-.32-3.59-1.5-4.23-4.23-1.01-4.23-.25-29.84.53-34.93,6.51-42.47,43.35-43.78,76.95-51.35l.08-.23Z"/>
        <g>
          <path class="cls-1" d="M153.14,64.57h0c16.5,5.98,15.95,25.68-2.24,27.96l-2.24.23c.05-.5-.08-1.02-.05-1.51-.04.49.09,1.01.05,1.51-1.32,14.38-7.96,27.55-20.55,35.36l.4.63c3.17,6.15,3.81,13.25,1.69,19.84-7.63,23.74-41.74,23.66-49.06.13l.08-.62-.25.06.25-.06-.65-19.27.67-2.19c-11.39-8.07-17.3-20.76-18.31-34.38l-2.18-.12c-17.61-.4-19.47-23.32-2.13-26.5l2.34-.97c.26,1.16,1.23,2.46,1.54,3.7l.87.18c1.09-8.71,7.86-16.85,12.59-24,18.44,12.13,39.18,9.56,56.93-2.32,3.06,9.66,8.22,16.29,16.1,22.62l.59-.04,2.97-.2.59-.04h0Z"/>
          <path class="cls-2" d="M153.14,64.57h0l-.59.04-2.97.2-.59.04c-7.89-6.33-13.04-12.96-16.1-22.62-17.76,11.88-38.5,14.45-56.93,2.32-4.73,7.15-11.51,15.29-12.59,24l-.87-.18c-.32-1.24-1.28-2.54-1.54-3.7C49.31,13.24,71.96-3.44,121.95,4.99c31.98,5.4,34.15,33.21,31.2,59.58Z"/>
        </g>
      </g>
      <g>
        <path class="cls-6" d="M93.83,105.82c7.31,7.92,16.48,9.02,23.39-.04"/>
        <path class="cls-4" d="M128.5,128.75c3.17,6.15,3.81,13.25,1.69,19.84-7.63,23.74-41.74,23.66-49.06.13-.06-.19-.12-.37-.18-.56"/>
        <line class="cls-4" x1="42.03" y1="236.8" x2="42.03" y2="215.63"/>
        <path class="cls-4" d="M80.55,128.84l.65,19.27-.33.29c-33.6,7.58-70.44,8.88-76.95,51.35-.78,5.09-1.53,30.7-.53,34.93.65,2.73,1.1,3.91,4.23,4.23h196.35c3.11-.32,3.58-1.48,4.23-4.23,1.18-4.97.08-32.5-1.06-38.11-8.16-39.97-43.61-40.37-75.68-48.16"/>
        <path class="cls-4" d="M153.14,64.57c2.95-26.37.78-54.19-31.2-59.58C71.96-3.44,49.31,13.24,60.94,64.68c.26,1.16,1.23,2.46,1.54,3.7,1.95,7.66-.13,16.33.43,23.89,1.01,13.62,6.92,26.3,18.31,34.38,13.37,9.48,32.9,10.14,46.89,1.47,12.6-7.81,19.24-20.97,20.55-35.36.05-.5-.08-1.02-.05-1.51.67-8.38-.49-17.88.37-26.4"/>
        <path class="cls-4" d="M148.98,64.85c-7.89-6.33-13.04-12.96-16.1-22.62-17.76,11.88-38.5,14.45-56.93,2.32-4.73,7.15-11.51,15.29-12.59,24-.11.88-.13,1.78-.15,2.67"/>
        <path class="cls-4" d="M58.6,65.65c-17.33,3.18-15.48,26.1,2.13,26.5"/>
        <line class="cls-4" x1="169.05" y1="236.27" x2="169.05" y2="215.63"/>
        <polyline class="cls-5" points="153.14 64.57 152.55 64.61 149.58 64.81 148.98 64.85"/>
        <path class="cls-4" d="M153.14,64.57c16.5,5.98,15.95,25.68-2.24,27.96"/>
      </g>
    </g>
  </g>
</svg>