<?xml version="1.0" encoding="UTF-8"?>
<svg id="Livello_2" xmlns="http://www.w3.org/2000/svg" version="1.1" viewBox="0 0 210.8 178.8">
  <!-- Generator: Adobe Illustrator 29.8.2, SVG Export Plug-In . SVG Version: 2.1.1 Build 3)  -->
  <defs>
    <style>
      .st0 {
        fill: #d1ff5c;
      }

      .st1 {
        stroke: #d1ff5c;
        stroke-width: 8.6px;
      }

      .st1, .st2 {
        fill: none;
        stroke-linecap: round;
        stroke-linejoin: round;
      }

      .st2 {
        stroke: #604c85;
        stroke-width: 7.9px;
      }

      .st3 {
        fill: #bacc6e;
      }
    </style>
  </defs>
  <g id="Livello_1-2">
    <path class="st0" d="M198,104.2c14,18.1,7,48.6,7.5,70.2-39.8-.5-79.7,1.1-119.5.1,1.2-22.6-7.2-54.9,16.5-68.5,11.4-6.6,63.7-6.4,78.5-4.9,5.5.6,10.9,5.3,16.6,2.4.1.2.2.4.4.6h0Z"/>
    <path class="st3" d="M198,104.2c-.1-.2-.2-.4-.4-.6-5.7,2.8-11.1-1.9-16.6-2.4-14.8-1.5-67-1.7-78.5,4.9-23.7,13.6-15.3,45.9-16.5,68.5-3.9-.1-7.8,0-11.6,0-.2-6.2-.4-12.4-.6-18.6-.5-15.5-2.1-37.6,7.4-50.6,7.4-10,17.8-16.1,30.2-17.6,23.7-3,70.5-3.8,86.2,15.8.1.2.2.4.4.6h0Z"/>
    <path class="st3" d="M128.8,5.7c2-.3,9.6-.3,11.6,0,6.4,1,11.1,8.5,17.9,5.5,15.7,30.1-22.2,60.4-48.1,41.5,2.9-6.8-2.7-11.8-3-18.7-.7-12.5,8.8-26.3,21.6-28.3Z"/>
    <path class="st0" d="M140.3,17.2c2-.3,9.6-.3,11.6,0,6.4,1,11.1,8.5,17.9,5.5,15.7,30.1-22.2,60.4-48.1,41.5,2.9-6.8-2.7-11.8-3-18.7-.7-12.5,8.8-26.3,21.6-28.3Z"/>
    <path class="st2" d="M134.5,4.4c14.4-2.5,28.6,5.5,35.3,18.2,15.7,30.1-22.2,60.4-48.1,41.5-24.4-17.9-16.6-54.6,12.8-59.7h0Z"/>
    <path class="st2" d="M74.5,174.5c-.2-6.2-.4-12.4-.6-18.6-.5-15.5-2.1-37.6,7.4-50.6,7.4-10,17.8-16.1,30.2-17.6,23.7-3,70.5-3.8,86.2,15.8.1.2.2.4.4.6,14,18.1,7,48.6,7.5,70.2-39.8-.5-79.7,1.1-119.5.1-3.9-.1-7.8,0-11.6,0h0Z"/>
    <line class="st1" x1="4.3" y1="15.7" x2="67" y2="15.7"/>
    <line class="st1" x1="4.3" y1="66.1" x2="67" y2="66.1"/>
    <line class="st1" x1="4.3" y1="41.6" x2="53.9" y2="41.6"/>
    <circle class="st0" cx="84" cy="40.1" r="9.2"/>
  </g>
</svg>