<?xml version="1.0" encoding="UTF-8"?>
<svg id="Livello_2" data-name="Livello 2" xmlns="http://www.w3.org/2000/svg" viewBox="0 0 284.27 205.82">
  <defs>
    <style>
      .cls-1, .cls-2 {
        fill: #d1ff5c;
      }

      .cls-3 {
        fill: #8ca53d;
      }

      .cls-4 {
        fill: none;
        stroke: #748434;
        stroke-width: 9.41px;
      }

      .cls-4, .cls-2 {
        stroke-linecap: round;
        stroke-linejoin: round;
      }

      .cls-2 {
        stroke: #604c85;
        stroke-width: 7.91px;
      }
    </style>
  </defs>
  <g id="Livello_1-2" data-name="Livello 1">
    <g id="Oggetto_generativo" data-name="Oggetto generativo">
      <g>
        <path class="cls-1" d="M147.85,170.41c-13.76-13.63-27.3-27.48-41.07-41.1h0C326.03-31.6,270.29,13.26,66.74,88.79h0C45.93,65.59,24.68,42.67,4.7,18.76c17.34.05,268.23-23.27,274.86-9.96l-104.38,187.38c-10.11-5.38-17.99-18-27.34-25.78Z"/>
        <path class="cls-3" d="M106.78,129.31c-7.27,20.59-13.59,41.74-20.94,62.21-10.28,23.25-16.9-97.89-19.1-102.73h0C271.27,12.8,325.22-31.08,106.78,129.31h0Z"/>
        <path class="cls-2" d="M147.85,170.41c-19.93,11.54-41.35,20.44-61.65,31.33-2.37-.34-2.23-3.04-3.21-4.77,10.3-21.04,15.18-45.55,23.79-67.65h0c13.77,13.62,27.31,27.47,41.07,41.1Z"/>
      </g>
      <g>
        <path class="cls-4" d="M66.74,88.79c2.73,16.94,7.84,98.81,17.86,112.32,19.77-6.41,40.04-19.38,59.64-28.53"/>
        <path class="cls-4" d="M66.74,88.79C45.93,65.59,24.68,42.67,4.7,18.76c17.34.05,268.23-23.27,274.86-9.96-1.49.22-102.99,189.62-105.88,187.58-22.27-22.39-44.54-44.79-66.91-67.08"/>
        <path class="cls-4" d="M106.78,129.31c-7.27,20.58-13.52,41.54-20.89,62.07"/>
        <path class="cls-4" d="M66.74,88.79c212.89-77.71,266.33-126.91,40.03,40.52"/>
      </g>
    </g>
  </g>
</svg>