<?xml version="1.0" encoding="UTF-8"?>
<svg id="Livello_2" data-name="Livello 2" xmlns="http://www.w3.org/2000/svg" viewBox="0 0 153.68 153.68">
  <defs>
    <style>
      .cls-1 {
        stroke: #3a3758;
      }

      .cls-1, .cls-2, .cls-3, .cls-4, .cls-5, .cls-6, .cls-7, .cls-8, .cls-9, .cls-10, .cls-11, .cls-12, .cls-13 {
        stroke-linecap: round;
        stroke-linejoin: round;
      }

      .cls-1, .cls-2, .cls-3, .cls-4, .cls-5, .cls-6, .cls-7, .cls-8, .cls-10, .cls-11, .cls-13 {
        stroke-width: 3.83px;
      }

      .cls-1, .cls-2, .cls-3, .cls-4, .cls-5, .cls-6, .cls-7, .cls-9, .cls-10, .cls-11, .cls-12, .cls-13 {
        fill: none;
      }

      .cls-2 {
        stroke: #393657;
      }

      .cls-3 {
        stroke: #3b395a;
      }

      .cls-14 {
        fill: #3b385a;
      }

      .cls-4 {
        stroke: #3c3859;
      }

      .cls-15 {
        fill: #fbf1af;
      }

      .cls-5 {
        stroke: #383558;
      }

      .cls-16 {
        fill: #3b3659;
      }

      .cls-6 {
        stroke: #3b3759;
      }

      .cls-7 {
        stroke: #3c385a;
      }

      .cls-8 {
        fill: #fefefe;
        stroke: #3d3859;
      }

      .cls-9 {
        stroke-width: 3.07px;
      }

      .cls-9, .cls-10 {
        stroke: #3c395a;
      }

      .cls-17 {
        fill: #fdc450;
      }

      .cls-11 {
        stroke: #3d3959;
      }

      .cls-12 {
        stroke-width: 3.45px;
      }

      .cls-12, .cls-13 {
        stroke: #3b3859;
      }
    </style>
  </defs>
  <g id="Livello_1-2" data-name="Livello 1">
    <g>
      <path class="cls-15" d="M91.88,115.13c-1.92-4.35,2.17-3.88,4.89-5.91,22.64-16.93,23.86-51.97-3.07-64.77-38.76-18.42-71.94,33.34-36.02,63.62,2.36,1.99,7.65,3,5.69,6.75.13.05.26.1.4.15-.13-.05-.26-.1-.4-.15-41.28-15.65-32.25-76.95,11.76-80.06,47.75-3.37,61.87,64.39,16.75,80.37Z"/>
      <path class="cls-17" d="M91.88,115.13c-9.1,3.22-19.05,3.16-28.12-.17-.13-.05-.26-.1-.4-.15,1.96-3.75-3.34-4.76-5.69-6.75-35.92-30.28-2.73-82.03,36.02-63.62,26.92,12.79,25.71,47.83,3.07,64.77-2.72,2.03-6.8,1.56-4.89,5.91Z"/>
      <path class="cls-16" d="M61.89,64.38c6.91-1.58,9.01,6.57,4.22,9.2-6.73,3.68-10.34-7.8-4.22-9.2Z"/>
      <path class="cls-16" d="M90.63,64.38c10.37-2.14,7.04,13.44-.77,9.2-3.51-1.91-3.24-8.37.77-9.2Z"/>
      <path class="cls-8" d="M67.61,84.5c5.44-.1,29.59-1.11,32.94-.1.12.04.25.02.39,0-8.77,20.2-36.65,22.25-44.23.37.25-.49,9.5-.25,10.91-.27Z"/>
      <line class="cls-5" x1="151.76" y1="76.01" x2="137.2" y2="76.07"/>
      <line class="cls-4" x1="130.8" y1="97.51" x2="146.78" y2="104.24"/>
      <line class="cls-12" x1="145.97" y1="47.94" x2="133.09" y2="53.36"/>
      <line class="cls-13" x1="130.68" y1="128.77" x2="118.48" y2="116.57"/>
      <line class="cls-9" x1="131.51" y1="22.58" x2="118.36" y2="35.29"/>
      <line class="cls-6" x1="99.47" y1="128.87" x2="105.77" y2="145.24"/>
      <line class="cls-12" x1="106.14" y1="8.11" x2="100.65" y2="21.34"/>
      <line class="cls-1" x1="77.8" y1="134.13" x2="78.22" y2="151.76"/>
      <line class="cls-2" x1="78.05" y1="1.92" x2="77.98" y2="17.63"/>
      <line class="cls-5" x1="1.92" y1="76.26" x2="19.54" y2="76.26"/>
      <line class="cls-7" x1="48.82" y1="145.88" x2="55.42" y2="130.81"/>
      <line class="cls-4" x1="48.84" y1="6.25" x2="55.57" y2="22.23"/>
      <path class="cls-11" d="M75.13,34.76c47.75-3.37,61.87,64.39,16.75,80.37-9.1,3.22-19.05,3.16-28.12-.17-.13-.05-.26-.1-.4-.15-41.28-15.65-32.25-76.95,11.76-80.06Z"/>
      <line class="cls-3" x1="24.62" y1="129.49" x2="34.78" y2="118.84"/>
      <line class="cls-10" x1="24.19" y1="22.31" x2="37.17" y2="34.87"/>
      <path class="cls-14" d="M7.41,103.47l12.9-5.59c1.77-.75,3.03-1.27,2.99-1.26,1.33-.03,2.45,1.55,2.07,2.82-.57.72-2.53,1.46-3.53,1.96l-12.9,5.59c-2.34.95-3.82-2.45-1.52-3.52h0Z"/>
      <line class="cls-7" x1="10.11" y1="48.02" x2="23.28" y2="53.42"/>
    </g>
  </g>
</svg>