<?xml version="1.0" encoding="UTF-8"?>
<svg id="Livello_2" data-name="Livello 2" xmlns="http://www.w3.org/2000/svg" viewBox="0 0 34.76 48.96">
  <defs>
    <style>
      .cls-1 {
        fill: #d7dcb7;
      }

      .cls-2 {
        fill: #29282d;
      }

      .cls-3 {
        fill: #fbf4c4;
      }

      .cls-4 {
        stroke: #1d191b;
      }

      .cls-4, .cls-5 {
        stroke-width: 1.03px;
      }

      .cls-4, .cls-5, .cls-6 {
        fill: none;
        stroke-linecap: round;
        stroke-linejoin: round;
      }

      .cls-5 {
        stroke: #1b181a;
      }

      .cls-7 {
        fill: #cde6fb;
      }

      .cls-6 {
        stroke: #afbdcf;
        stroke-width: .8px;
      }

      .cls-8 {
        fill: #7b8cab;
      }
    </style>
  </defs>
  <g id="Livello_1-2" data-name="Livello 1">
    <g id="Oggetto_generativo" data-name="Oggetto generativo">
      <g>
        <path class="cls-7" d="M20.47,32.59h0l.05.02c4.66,1.34,10.16,3.25,12.32,8.02l1.41,7.8-33.65.02-.08-.1c.07-.36.1-.74.16-1.1.26-1.65.91-6.15,1.61-7.42,2.15-3.94,7.85-6.15,11.98-7.23h0l.04.03,3.14,2.18,3.03-2.21h0Z"/>
        <path class="cls-8" d="M28.53,14.17h-.05c-.08-.55-1.04-2.8-1.34-3.32-.18-.31-1.08-1.69-1.38-1.74-.13-.02-2.02.59-2.37.67-1.9.42-3.91.51-5.81.02l.56,1.82c-1.76.53-4.08.16-5.78-.49-.65-.25-2.95-1.49-3.47-1.38-.44.09-1.14,1.01-1.38,1.39s-1.26,2.61-1.32,2.98h-.08c-.31-1.39-.48-2.08-.3-3.55,1.7-13.92,24.39-13.42,23.15,1.74-.06.68-.36,1.23-.43,1.86Z"/>
        <path class="cls-1" d="M20.42,28.31v.15c.09,1.33-.06,2.76.05,4.08,0,.02,0,.03,0,.05h0l-3.03,2.21-3.14-2.18-.04-.03h0v-.05s.03-4.08.03-4.08v-.15c2.01.59,4.14.59,6.13,0Z"/>
        <g>
          <path class="cls-3" d="M28.53,14.17c-.01.11-.02.22-.02.33v.06s0,0,0,0c.07.33-.05.54-.14.83.1.11.26.15.39.2,3.62,1.37,2.6,4.83-.9,4.86h-.03c-.89,3.77-3.71,6.76-7.41,7.86-2,.59-4.12.59-6.12,0-3.72-1.1-6.59-4.16-7.44-7.95h-.11c-3.35.24-4.34-3.67-.78-4.76.13-.04.26-.08.39-.13-.1-.34-.13-.5-.2-.85h0s0-.05,0-.07c0-.08,0-.15,0-.23h-.03c-.02-.06-.02-.13-.03-.2h.08c.06-.37,1.09-2.62,1.32-2.98s.94-1.3,1.38-1.39c.53-.11,2.82,1.13,3.47,1.38,1.71.65,4.02,1.02,5.78.49l-.56-1.82c1.9.5,3.9.4,5.81-.02.35-.08,2.24-.69,2.37-.67.3.04,1.2,1.42,1.38,1.74.3.52,1.26,2.77,1.34,3.32h.05Z"/>
          <path class="cls-2" d="M12.15,14.98c2.34-.31,2.22,3.81.56,4.09-2.35.39-2.36-3.85-.56-4.09Z"/>
          <path class="cls-2" d="M22.06,14.98c2.34-.3,2.23,3.81.56,4.09-2.35.39-2.35-3.86-.56-4.09Z"/>
        </g>
      </g>
      <g>
        <line class="cls-6" x1="22.88" y1="3.34" x2="15.74" y2="3.34"/>
        <path class="cls-4" d="M14.1,22.25c1.92,2.25,4.62,2.3,6.52,0"/>
        <path class="cls-5" d="M14.25,32.59c-4.12,1.08-9.82,3.3-11.98,7.23-.69,1.27-1.35,5.76-1.61,7.42-.06.37-.08.74-.16,1.1l.08.1,33.65-.02-1.41-7.8c-2.16-4.76-7.67-6.67-12.32-8.02l-.05-.02"/>
        <polyline class="cls-5" points="14.25 32.59 14.29 32.62 17.43 34.8 20.47 32.59"/>
        <path class="cls-5" d="M20.44,28.46c.08,1.33-.07,2.76.03,4.08v.05"/>
        <polyline class="cls-5" points="14.29 28.46 14.25 32.54 14.25 32.59"/>
        <path class="cls-5" d="M5.97,15.6c-3.56,1.1-2.57,5.01.78,4.77,0-.75-.09-1.49-.12-2.24-.04-1.24.09-1.41-.27-2.67-.1-.34-.13-.5-.2-.85-.02-.09,0-.2-.02-.3-.02-.07-.02-.14-.03-.2-.31-1.39-.48-2.08-.3-3.55,1.7-13.92,24.39-13.42,23.15,1.74-.06.68-.36,1.23-.43,1.86-.01.11-.02.22-.02.33v.06c.07.33-.05.54-.14.83-.48,1.54-.19,2.11-.31,3.58-.04.49-.25.97-.2,1.47,3.5-.03,4.52-3.49.9-4.86l-.04-.02"/>
        <path class="cls-5" d="M28.51,14.56c0-.13-.01-.26-.03-.39-.08-.55-1.04-2.79-1.34-3.32-.18-.31-1.08-1.69-1.38-1.74-.13-.02-2.02.59-2.37.67-1.9.42-3.91.51-5.81.02l.56,1.82c-1.76.53-4.08.16-5.78-.49-.65-.25-2.95-1.49-3.47-1.38-.44.09-1.14,1.01-1.38,1.39s-1.26,2.61-1.32,2.98c-.01.07-.01.13-.02.2,0,.08,0,.15,0,.23v.06"/>
        <line class="cls-5" x1="27.85" y1="48.04" x2="27.8" y2="41.65"/>
        <line class="cls-5" x1="6.92" y1="48.04" x2="6.92" y2="41.65"/>
        <path class="cls-5" d="M6.84,20.26l.02.1c.85,3.79,3.72,6.85,7.44,7.95,2,.59,4.12.59,6.12,0,3.7-1.1,6.52-4.09,7.41-7.85.02-.07.03-.14.05-.21"/>
      </g>
    </g>
  </g>
</svg>