<?xml version="1.0" encoding="UTF-8"?>
<svg id="Livello_2" data-name="Livello 2" xmlns="http://www.w3.org/2000/svg" viewBox="0 0 184.66 201.34">
  <defs>
    <style>
      .cls-1 {
        fill: #fbf4c4;
      }

      .cls-2 {
        fill: #27282d;
      }

      .cls-3 {
        fill: #99bfd3;
      }

      .cls-4 {
        stroke-width: 5.15px;
      }

      .cls-4, .cls-5, .cls-6 {
        fill: none;
        stroke-linecap: round;
        stroke-linejoin: round;
      }

      .cls-4, .cls-6 {
        stroke: #28282e;
      }

      .cls-7 {
        fill: #feb38f;
      }

      .cls-5 {
        stroke: #27282d;
      }

      .cls-5, .cls-6 {
        stroke-width: 6.08px;
      }
    </style>
  </defs>
  <g id="Livello_1-2" data-name="Livello 1">
    <g id="Oggetto_generativo" data-name="Oggetto generativo">
      <g>
        <path class="cls-3" d="M58.09,144.01c.45.64.7,1.6,1.07,2.22,16.18,26.88,50.76,27.9,66.26,0,.41-.73.52-1.61,1.09-2.28,23.35,5.53,46.09,7.06,53.62,34.7.77,2.83,2.68,18.75.37,19.66l-176.8-.11c-1.15-7.1-.92-15.55,1.5-22.36,8.99-25.38,30.52-26.56,52.89-31.83Z"/>
        <g>
          <path class="cls-7" d="M112.1,128.68c.02-2.35.36-5.38.12-7.6-.1-.89.28-1.77-.71-2.31,12.83-9.34,17.52-30.3,20.72-44.92l.44-2.24c-14.05-6.89-21.58-16.29-28.64-29.94-10.83,22.34-30.22,25.41-51.74,30.49-.11.89.05,1.73.17,2.61,2.03,15.01,8.48,33.4,20.35,43.37-.66,1.5-.38,3.22-.4,4.8-.02,1.9,0,3.8,0,5.71l-2.34-.09c-8.75-1.47-26.69,4.12-31.17-5.62-1.64-3.57-1.32-71.88-.19-78.62C42.83,19.84,65.26,1.44,90.19,3.15c11.8.81,41.49,13.36,48.76,22.46,14.01,17.53,4.46,74.25,6.74,97.34-4.15,9.75-22.56,4.13-31.17,5.62l-2.42.11Z"/>
          <path class="cls-1" d="M112.1,128.68c-.02,1.82-.48,11.53.11,12.2,4.6,1.73,9.57,1.94,14.31,3.06-.58.67-.69,1.55-1.09,2.28-15.5,27.9-50.08,26.88-66.26,0-.37-.62-.62-1.58-1.07-2.22,4.66-1.1,9.51-1.42,14.03-3.07.58-.69.28-10.43.28-12.27s-.02-3.81,0-5.71c.02-1.58-.26-3.31.4-4.8-11.87-9.97-18.32-28.36-20.35-43.37-.12-.88-.27-1.71-.17-2.61,21.53-5.09,40.91-8.16,51.74-30.49,7.06,13.64,14.59,23.05,28.64,29.94l-.44,2.24c-3.2,14.61-7.89,35.58-20.72,44.92.98.54.61,1.42.71,2.31.24,2.22-.1,5.25-.12,7.6Z"/>
        </g>
      </g>
      <g>
        <path class="cls-2" d="M114.2,82.43c-9.86-7.23-10.51,1.2-14.04-1.35-2.31-1.87.72-4.88,2.63-5.9,1.24-.5,2.61-.82,4-.87,3.83-.2,7.61,1.9,10.41,3.93,1.16.82,1.43,2.43.61,3.59-.83,1.17-2.45,1.44-3.61.6h0Z"/>
        <path class="cls-5" d="M78.48,102.38c8.53,8.68,19.05,8.65,27.65.03"/>
        <path class="cls-4" d="M69.39,80.39c4.17-3.55,7.69-4.49,12.81-2.49"/>
        <path class="cls-6" d="M72.41,122.96c-.02,1.9,0,3.8,0,5.71s.3,11.58-.28,12.27c-4.53,1.65-9.38,1.97-14.03,3.07-22.37,5.27-43.9,6.45-52.89,31.83-2.41,6.81-2.64,15.25-1.5,22.36l176.8.11c2.31-.9.4-16.82-.37-19.66-7.53-27.64-30.27-29.18-53.62-34.7-4.73-1.12-9.7-1.33-14.31-3.06-.59-.67-.13-10.38-.11-12.2.02-2.35.36-5.38.12-7.6"/>
        <path class="cls-6" d="M52.45,74.79c2.03,15.01,8.48,33.4,20.35,43.37,9.99,8.4,28.25,8.24,38.72.62,12.83-9.34,17.52-30.3,20.72-44.92"/>
        <path class="cls-6" d="M40.63,74.68c3.87-.89,7.79-1.58,11.66-2.5,21.53-5.09,40.91-8.16,51.74-30.49,7.06,13.64,14.59,23.05,28.64,29.94,3.29,1.61,6.97,2.57,10.3,4.12"/>
        <path class="cls-6" d="M59.17,146.23c16.18,26.88,50.76,27.9,66.26,0"/>
        <path class="cls-6" d="M70.07,128.57c-8.75-1.47-26.69,4.12-31.17-5.62-1.64-3.57-1.32-71.88-.19-78.62C42.83,19.84,65.26,1.44,90.19,3.15c11.8.81,41.49,13.36,48.76,22.46,14.01,17.53,4.46,74.25,6.74,97.34-4.15,9.75-22.56,4.13-31.17,5.62"/>
      </g>
    </g>
  </g>
</svg>