<?xml version="1.0" encoding="UTF-8"?>
<svg id="Livello_2" data-name="Livello 2" xmlns="http://www.w3.org/2000/svg" viewBox="0 0 36 50.14">
  <defs>
    <style>
      .cls-1 {
        fill: #26282d;
      }

      .cls-2 {
        fill: #fbf4c4;
      }

      .cls-3 {
        fill: #cde6fb;
      }

      .cls-4 {
        stroke: #29282d;
      }

      .cls-4, .cls-5 {
        fill: none;
        stroke-linecap: round;
        stroke-linejoin: round;
        stroke-width: .92px;
      }

      .cls-6 {
        fill: #87b1b2;
      }

      .cls-5 {
        stroke: #29282c;
      }

      .cls-7 {
        fill: #a1defd;
      }

      .cls-8 {
        fill: #c1bba3;
      }
    </style>
  </defs>
  <g id="Livello_1-2" data-name="Livello 1">
    <g id="Oggetto_generativo" data-name="Oggetto generativo">
      <g>
        <path class="cls-3" d="M12.37,32.16c.09.1.15.21.23.32,1.2,1.64,2.45,3.23,3.67,4.85.14.05,1.55-2.02,1.75-2.27h0c.2.25,1.59,2.32,1.73,2.28,1.18-1.64,2.57-3.2,3.71-4.86.06-.09.13-.21.18-.32,5.16,1.29,10.27,2.05,11.61,8.26.25,1.17.41,7.66.18,8.77-.08.38-.11.41-.48.48H1.07c-.38-.08-.41-.1-.48-.48-.22-1.08-.11-6.38,0-7.66.59-6.87,6.31-8.05,11.79-9.37Z"/>
        <path class="cls-6" d="M27.7,15.16h0c-.06-.01-.61.17-.74.2-.19.05-.36.16-.63.1-.03-2.26.39-3.62-1.78-5.13-1.94-1.35-3.22-.28-5.11.07s-3.54-.09-5.25-.78c-1.18-.47-3.82-2.29-4.44-.18-.25.84-.04,4.77-.04,5.93-.22.02-.43-.02-.65-.04-.17-.01-.34-.03-.51-.04h-.05s-.02-.05-.02-.05c-.35-.64-.77-1.04-1-1.75-.91-2.82-.36-6.82,1.5-9.16C12.49-.11,21.98-1.4,25.15,4.04c.19.32.45,1.15.65,1.34.29.28,1.49.36,2.12.89,2.61,2.17.72,6.34-.2,8.84l-.02.05h0Z"/>
        <path class="cls-7" d="M21.13,31.61c.83.21,1.68.36,2.52.56-.05.1-.12.22-.18.32-1.14,1.66-2.53,3.22-3.71,4.86-.14.05-1.53-2.03-1.73-2.27h0c-.2.24-1.61,2.31-1.75,2.27-1.22-1.62-2.47-3.22-3.67-4.85-.08-.11-.14-.22-.23-.32.82-.2,1.67-.35,2.49-.57h.05c1.06,1.12,2.12,2.22,3.09,3.44l.02.04c.96-1.2,2.01-2.31,3.08-3.43l.03-.04Z"/>
        <path class="cls-8" d="M21.12,29.61c-.61.2-.89-.41-1.38-.7-.45-.27-1.15-.57-1.64-.77s-1.51-.16-1.19-.93c1.41.19,2.84.01,4.16-.51l.04.19v2.73Z"/>
        <g>
          <path class="cls-2" d="M27.7,15.16h0s.03.03.04.03c.15.04.83.61.95.75.66.8.69,2.12.06,2.94-.55.72-1.52,1.22-2.42,1.28h-.03c-.45,2.95-2.45,5.45-5.22,6.54-1.32.52-2.76.69-4.16.51-.32.77.69.72,1.19.93s1.19.51,1.64.77c.49.29.77.9,1.38.7,0,.65,0,1.3,0,1.95v.05s-.03.04-.03.04c-1.06,1.11-2.11,2.23-3.08,3.43l-.02-.04c-.97-1.21-2.03-2.32-3.09-3.45h0v-.05s0-4.65,0-4.65l.05-.19c-2.77-1.09-4.77-3.59-5.22-6.53l-.04-.02c-2.73-.1-4.19-3.8-1.21-4.87h.05c.17.02.34.03.51.05.22.02.43.06.65.04,0-1.16-.21-5.1.04-5.93.63-2.11,3.27-.29,4.44.18,1.71.69,3.4,1.12,5.25.78s3.17-1.42,5.11-.07c2.18,1.52,1.75,2.88,1.78,5.13.27.06.44-.05.63-.1.13-.03.69-.22.74-.2h0Z"/>
          <path class="cls-1" d="M14.2,13.77c.41-.05.86.21.94.65.07.37.03,2.03-.14,2.31-.39.64-1.28.38-1.4-.34-.1-.59-.19-2.52.6-2.63Z"/>
          <path class="cls-1" d="M21.48,13.77c.35-.04.81.2.89.55.03.15.03,2.08,0,2.22-.15.65-1.34.76-1.49,0-.04-.19-.04-2.08,0-2.27.05-.25.35-.48.6-.51Z"/>
        </g>
      </g>
      <g>
        <path class="cls-5" d="M15.77,21.74c1.38,1.15,3.24,1.09,4.57-.11"/>
        <path class="cls-4" d="M9.71,20.07l.02.11c.45,2.94,2.45,5.44,5.22,6.53.64.25,1.29.42,1.97.51,1.41.19,2.84.01,4.16-.51,2.77-1.09,4.77-3.58,5.22-6.53l.02-.11"/>
        <path class="cls-4" d="M14.91,31.58c1.06,1.13,2.12,2.24,3.09,3.45.01.01.02.03.03.04.2.25,1.59,2.32,1.73,2.27,1.18-1.64,2.57-3.2,3.71-4.86"/>
        <path class="cls-4" d="M14.91,31.58h-.05c-.82.23-1.66.38-2.49.58-5.48,1.32-11.19,2.51-11.79,9.37-.11,1.28-.22,6.59,0,7.66.08.38.11.41.48.48h33.89c.38-.08.41-.1.48-.48.23-1.12.07-7.6-.18-8.77-1.33-6.21-6.44-6.96-11.61-8.26-.83-.21-1.68-.35-2.52-.56"/>
        <path class="cls-4" d="M21.13,31.61l-.03.04c-1.06,1.11-2.11,2.23-3.08,3.43-.2.25-1.61,2.31-1.75,2.27-1.22-1.62-2.47-3.22-3.67-4.85"/>
        <line class="cls-4" x1="6.8" y1="49.35" x2="6.8" y2="43.03"/>
        <path class="cls-4" d="M8.48,15.28c-2.98,1.07-1.53,4.77,1.21,4.87.02-1.59,0-3.19,0-4.79,0-1.16-.21-5.1.04-5.93.63-2.11,3.27-.29,4.44.18,1.71.69,3.4,1.12,5.25.78s3.17-1.42,5.11-.07c2.18,1.52,1.75,2.88,1.78,5.13.02,1.57-.01,3.13,0,4.7.9-.05,1.87-.56,2.42-1.28.63-.82.6-2.14-.06-2.94-.11-.14-.8-.71-.95-.75l-.04-.03"/>
        <path class="cls-4" d="M21.13,31.61v-.05c0-.65,0-1.3,0-1.95v-2.73"/>
        <path class="cls-4" d="M8.48,15.28h.05c.17.02.34.03.51.05"/>
        <polyline class="cls-4" points="14.9 26.89 14.91 31.53 14.91 31.58"/>
        <path class="cls-4" d="M27.7,15.16l.02-.05c.92-2.5,2.81-6.68.2-8.84-.63-.52-1.83-.61-2.12-.89-.19-.19-.46-1.02-.65-1.34C21.98-1.4,12.49-.11,8.96,4.33c-1.86,2.34-2.41,6.34-1.5,9.16.23.71.65,1.11,1,1.75l.02.05"/>
        <line class="cls-4" x1="29.22" y1="49.35" x2="29.22" y2="43.13"/>
        <path class="cls-4" d="M27.7,15.16c-.06-.01-.61.17-.74.2"/>
      </g>
    </g>
  </g>
</svg>