<?xml version="1.0" encoding="UTF-8"?>
<svg id="Livello_2" data-name="Livello 2" xmlns="http://www.w3.org/2000/svg" viewBox="0 0 35.64 48.58">
  <defs>
    <style>
      .cls-1 {
        fill: #6b7592;
      }

      .cls-2 {
        fill: #fbf4c4;
      }

      .cls-3 {
        fill: #cde6fb;
      }

      .cls-4 {
        stroke-width: .98px;
      }

      .cls-4, .cls-5 {
        fill: none;
        stroke: #1d181d;
      }

      .cls-4, .cls-5, .cls-6 {
        stroke-linecap: round;
        stroke-linejoin: round;
      }

      .cls-5 {
        stroke-width: .84px;
      }

      .cls-6 {
        fill: #47767a;
        stroke: #1d191d;
        stroke-width: .89px;
      }

      .cls-7 {
        fill: #d4dabc;
      }
    </style>
  </defs>
  <g id="Livello_1-2" data-name="Livello 1">
    <g id="Oggetto_generativo" data-name="Oggetto generativo">
      <g>
        <path class="cls-3" d="M14.66,31.33c.46,3.21,5.3,3.51,6.2-.06.14-.01.26.04.38.07,3.04.7,5.67,1.82,8.06,3.89.41.35,2.04,1.86,2.19,2.24.1.25-.52.63-.46.83.04.11,1.38,1.43,1.63,1.77,1.6,2.12,1.96,5.38,2.48,7.91l-.07.1H.49c.69-3.51,1.23-7.54,4.24-9.9.07-.19-.89-.77-.77-1,.14-.29,1.78-1.67,2.14-1.96,2.46-1.99,5.12-3.19,8.2-3.84.13-.03.23-.09.37-.05Z"/>
        <path class="cls-1" d="M28.69,16.3c-.06-.01-.17.03-.25.02-.2-.01-.42.09-.63.05-.01-.17.02-.36,0-.52,0-.02-.04-.03-.05-.05-.29-2.28-2.27-6.18-4.8-6.45-.55-.06-1.48,1.12-1.96,1.48-1.92,1.44-5.02,1.54-7.3,1.47l-.05-.02-.04.02c-.56-.02-4.03-.35-4.22-.26-.1.05-.63.73-.72.86-.36.55-1,2.14-1.15,2.79,0,.04-.02.09-.02.13l-.05.04C4.75,9.15,9.17,1.82,16.3.65c8.83-1.45,15.97,7.4,12.42,15.64h-.04Z"/>
        <path class="cls-7" d="M20.77,28.26s.03-.01.05-.02v.14c-.07.84.24,2.1.04,2.89-.9,3.56-5.73,3.26-6.2.06-.12-.83.18-2.07.1-2.94v-.14c1.95.61,4.05.62,6,.01Z"/>
        <path class="cls-7" d="M28.69,16.3s.04.01.05.02c.79.25,1.57,1.23,1.69,2.06.24,1.68-1.1,2.62-2.58,2.87-.1-.03-.05-.48-.05-.59,0-.02,0-.03,0-.05-.06-1.39.09-2.86,0-4.24.21.04.44-.06.63-.05.08,0,.19-.04.25-.02Z"/>
        <path class="cls-7" d="M7.91,16.32c-.33,1.63-.36,3.1.05,4.72h-.18c-3.28.21-3.76-4.35-.29-4.68.13-.01.27-.07.42-.04Z"/>
        <g>
          <path class="cls-2" d="M27.81,16.37c.09,1.38-.07,2.85,0,4.24,0,.02,0,.03,0,.05l-.13.06c0,.09-.02.19-.04.27-1,3.51-3.27,6.15-6.81,7.25-.02,0-.03.01-.05.02-1.96.6-4.05.6-6.01-.01-3.36-1.05-5.94-3.78-6.8-7.2-.41-1.62-.38-3.09-.05-4.72.02-.09.03-.18.05-.27l-.43-.34c.15-.65.79-2.24,1.15-2.79.09-.14.62-.82.72-.86.19-.09,3.66.24,4.22.26l.04-.02.05.02c2.28.07,5.37-.03,7.3-1.47.48-.36,1.4-1.54,1.96-1.48,2.53.26,4.51,4.17,4.8,6.45,0,.02.04.03.05.05.02.16-.01.35,0,.52Z"/>
          <path class="cls-6" d="M13.11,15.6c.1-.02.2-.04.3-.05,2.25-.16,2.64,3.2.41,3.55s-2.9-2.95-.71-3.5Z"/>
          <path class="cls-6" d="M21.85,15.55c2.35-.18,2.62,3.39.27,3.57s-2.62-3.39-.27-3.57Z"/>
        </g>
      </g>
      <g>
        <line class="cls-4" x1="26.13" y1="47.71" x2="26.13" y2="40.45"/>
        <path class="cls-5" d="M19.89,23.57c-1.19,1.12-2.95,1.08-4.2.06"/>
        <path class="cls-4" d="M28.69,16.3c-.06-.01-.17.03-.25.02"/>
        <path class="cls-4" d="M27.63,20.99c-1,3.51-3.27,6.15-6.81,7.25-.02,0-.03.01-.05.02-1.96.6-4.05.6-6.01-.01-3.36-1.05-5.94-3.78-6.8-7.2-.41-1.62-.38-3.09-.05-4.72.02-.09.03-.18.05-.27v-.05"/>
        <line class="cls-4" x1="9.41" y1="47.71" x2="9.41" y2="40.59"/>
        <path class="cls-4" d="M21.24,31.34c3.04.7,5.67,1.82,8.06,3.89.41.35,2.04,1.86,2.19,2.24.1.25-.52.63-.46.83.04.11,1.38,1.43,1.63,1.77,1.6,2.12,1.96,5.38,2.48,7.91l-.07.1H.49c.69-3.51,1.23-7.54,4.24-9.9.07-.19-.89-.77-.77-1,.14-.29,1.78-1.67,2.14-1.96,2.46-1.99,5.12-3.19,8.2-3.84"/>
        <path class="cls-4" d="M14.76,28.38c.08.87-.22,2.12-.1,2.94.46,3.21,5.3,3.51,6.2-.06.2-.79-.11-2.05-.04-2.89"/>
        <path class="cls-4" d="M7.49,16.36c-3.48.34-2.99,4.89.29,4.7"/>
        <path class="cls-4" d="M27.81,15.85s-.04-.03-.05-.05c-.29-2.28-2.27-6.18-4.8-6.45-.55-.06-1.48,1.12-1.96,1.48-1.92,1.44-5.02,1.54-7.3,1.47-.03,0-.05,0-.08,0-.56-.02-4.03-.35-4.22-.26-.1.05-.63.73-.72.86-.36.55-1,2.14-1.15,2.79,0,.04-.02.09-.02.13l-.02.33-.03-.29C4.75,9.15,9.17,1.82,16.3.65c8.83-1.45,15.97,7.4,12.42,15.64l.02.03c.79.25,1.57,1.23,1.69,2.06.24,1.68-1.1,2.62-2.58,2.87-.1-.03-.05-.48-.05-.59,0-.02,0-.03,0-.05-.06-1.39.09-2.86,0-4.24-.01-.17.02-.36,0-.52Z"/>
        <path class="cls-4" d="M13.51,12.31c.05,0,.11,0,.16-.02.39-.1,1.74-1.15,2.12-1.45.65-.52,1.25-1.09,1.87-1.63"/>
      </g>
    </g>
  </g>
</svg>