<?xml version="1.0" encoding="UTF-8"?>
<svg id="Livello_2" data-name="Livello 2" xmlns="http://www.w3.org/2000/svg" viewBox="0 0 40.14 49.14">
  <defs>
    <style>
      .cls-1 {
        fill: #121231;
      }

      .cls-2 {
        stroke: #101434;
      }

      .cls-2, .cls-3 {
        fill: none;
        stroke-linecap: round;
        stroke-linejoin: round;
        stroke-width: .9px;
      }

      .cls-3 {
        stroke: #111335;
      }

      .cls-4 {
        fill: #88d8fe;
      }

      .cls-5 {
        fill: #feccd6;
      }

      .cls-6 {
        fill: #fee1a1;
      }
    </style>
  </defs>
  <g id="Livello_1-2" data-name="Livello 1">
    <g>
      <path class="cls-6" d="M24.27,29.23c-.29.01-.58.02-.88.06l-.11-.11c2.47-1.17,4.6-4.33,5.46-6.87,1.11-3.3.25-6.6.81-9.94-3.54.27-6.54-1-9.67-2.48-1.86,2.06-3.3,3.25-6.01,4.03-.71.2-2.82.17-3.09.85-.1.24.05,4.63.13,5.17.43,3.24,2.88,7.84,5.89,9.27l-.1.12c-.29-.03-.58-.04-.86-.06-.04,0-.09,0-.13,0-3.08-.16-9.25,1.47-10.06-2.44-.46-2.25-.08-13.91.59-16.12,4.14-13.57,23.17-13.71,27.36-.12.66,2.14.96,13.87.55,16.12-.76,4.14-6.76,2.38-9.88,2.54Z"/>
      <path class="cls-4" d="M11.81,33.97s.08-.03.13-.04c.01.26.15.45.26.67,2.39,4.75,13.36,4.76,15.8,0,.11-.21.25-.41.28-.66,4.93,1.26,9.16,4.91,10.9,9.72.78,2.15,1.03,4.22-1.83,4.72-10.86-.92-23.09,1.03-33.79.02-3.88-.36-3.49-2.7-2.23-5.57,1.95-4.43,5.79-7.64,10.48-8.85Z"/>
      <path class="cls-5" d="M24.27,29.23l.04.55c-.39,5.1.63,3.3,3.97,4.15-.02.25-.17.45-.28.66-2.44,4.75-13.41,4.75-15.8,0-.11-.22-.25-.41-.26-.67-.04.01-.08.03-.13.04.04-.01.08-.03.13-.04.91-.22,3.28-.13,3.69-.59.34-.38.23-2.91.12-3.56l.09-.52s-.09,0-.13,0c.04,0,.09,0,.13,0,.29.02.58.03.86.06l.1-.12c-3.01-1.42-5.46-6.03-5.89-9.27-.07-.54-.22-4.93-.13-5.17.27-.68,2.38-.65,3.09-.85,2.71-.77,4.15-1.97,6.01-4.03,3.12,1.49,6.12,2.75,9.67,2.48-.55,3.33.31,6.64-.81,9.94-.86,2.54-2.99,5.7-5.46,6.87l.11.11c.29-.03.58-.04.88-.06Z"/>
      <path class="cls-1" d="M15.59,16.03c2.42-.2,1.57,3.47-.36,2.61-1.04-.47-.99-2.49.36-2.61Z"/>
      <path class="cls-1" d="M24.24,16.03c1.83-.05,1.77,2.5.36,2.73-1.75.29-2.2-2.67-.36-2.73Z"/>
      <path class="cls-3" d="M17.23,23.26c1.44,2.29,4.47,2.36,5.7-.14"/>
      <line class="cls-2" x1="32.01" y1="47.8" x2="32.01" y2="43.3"/>
      <line class="cls-2" x1="8.2" y1="47.8" x2="8.05" y2="43.3"/>
      <path class="cls-2" d="M15.74,29.78c.11.64.22,3.17-.12,3.56-.41.46-2.78.36-3.69.59-.04.01-.08.03-.13.04-4.69,1.21-8.53,4.42-10.48,8.85-1.26,2.88-1.65,5.21,2.23,5.57,10.7,1,22.93-.95,33.79-.02,2.86-.5,2.6-2.57,1.83-4.72-1.73-4.81-5.97-8.46-10.9-9.72-3.34-.85-4.36.95-3.97-4.15"/>
      <path class="cls-2" d="M22.64,29.42c.21-.07.43-.15.64-.24,2.47-1.17,4.6-4.33,5.46-6.87,1.11-3.3.25-6.6.81-9.94-3.54.27-6.54-1-9.67-2.48-1.86,2.06-3.3,3.25-6.01,4.03-.71.2-2.82.17-3.09.85-.1.24.05,4.63.13,5.17.43,3.24,2.88,7.84,5.89,9.27.2.1.42.16.63.22"/>
      <path class="cls-2" d="M12.2,34.59c2.39,4.75,13.36,4.76,15.8,0"/>
      <path class="cls-2" d="M22.64,29.42c.25-.03.49-.11.75-.13.29-.03.58-.04.88-.06,3.12-.16,9.11,1.6,9.88-2.54.42-2.26.11-13.99-.55-16.12-4.19-13.59-23.23-13.45-27.36.12-.67,2.21-1.05,13.88-.59,16.12.8,3.91,6.98,2.29,10.06,2.44.04,0,.09,0,.13,0,.29.02.58.03.86.06,1.08.11,2.08.61,3.1.67,1.19.07,1.89-.45,2.85-.57Z"/>
    </g>
  </g>
</svg>