<?xml version="1.0" encoding="UTF-8"?>
<svg id="Livello_2" data-name="Livello 2" xmlns="http://www.w3.org/2000/svg" viewBox="0 0 172.7 235.42">
  <defs>
    <style>
      .cls-1 {
        fill: #fefefe;
      }

      .cls-1, .cls-2, .cls-3, .cls-4, .cls-5, .cls-6 {
        stroke-linecap: round;
        stroke-linejoin: round;
      }

      .cls-1, .cls-2, .cls-4, .cls-5 {
        stroke: #26282d;
      }

      .cls-1, .cls-3, .cls-4 {
        stroke-width: 3.85px;
      }

      .cls-2, .cls-6 {
        fill: #99e2cd;
        stroke-width: 3.62px;
      }

      .cls-7 {
        fill: #fee5cf;
      }

      .cls-8 {
        fill: #cbeafe;
      }

      .cls-3 {
        stroke: #27282d;
      }

      .cls-3, .cls-4, .cls-5 {
        fill: none;
      }

      .cls-5 {
        stroke-width: 4.75px;
      }

      .cls-9 {
        fill: #c2c2ce;
      }

      .cls-6 {
        stroke: #26292d;
      }
    </style>
  </defs>
  <g id="Livello_1-2" data-name="Livello 1">
    <g id="Oggetto_generativo" data-name="Oggetto generativo">
      <g>
        <path class="cls-8" d="M106.74,156.49l.79-.03c33.22,2.11,60.22,28.3,63.02,61.53.14,1.66.38,14.26.09,15.03-.1.26-.12.45-.46.48l-167.94-.13c-2.04-23.53,5.36-45.34,23.62-61.08,12.93-11.15,23.46-12.94,39.35-15.78.49-.09.94-.14,1.41-.3,1.23,20.83,35.72,23.98,40.12.27Z"/>
        <path class="cls-9" d="M107.08,146.12l-.1-.15c-.13-2.76-.09-5.53-.14-8.29-.01-.61.2-1.45-.25-1.92,16.71-7.78,26.7-23.28,27.75-41.47.64.08,1.05-.21,1.6-.43,14.22-5.84,13.3-20.37-.28-26.73-.5-.24-.71-.68-1.43-.47v-11.05c-.53-.08-1.06-.02-1.58-.06-3.68-.25-7.81.69-11.54.83-22.65.81-43.24-4.88-61.26-19.11-.76,8.91-3.81,18.44-9.45,25.54-2.41,3.03-5.79,6.74-9.82,7.11l-.25.05-.04-.23c-.18-1.32-.46-2.63-.63-3.95-.56-.18-1.05.29-1.48.49-14.27,6.59-14.55,20.92-.22,27.61.52.24,1.04.56,1.62.62.4,19.03,9.78,33.64,27.61,41.44-.3.49-.1,1.01-.11,1.52-.07,3.11-.22,6.22-.27,9.34-.6-.14-1.21-.01-1.81-.04-3.44-.19-21.7.36-23.07-.42-7.23-4.15-17.63-24.26-20.45-32.39-5.31-15.31-6.05-46.71-1.36-62.21C37.84-6.75,115.84-15.47,146.39,37.47c12.15,21.06,11.75,61.3,2.04,83.25-2.7,6.09-12.18,22.52-17.6,25.61-1.03.59-22.93.65-23.75-.21Z"/>
        <g>
          <path class="cls-7" d="M107.08,146.12l-.1-.15c-.52.22-.67.41-.72.97-.25,2.47,1.23,5.55.49,9.54-4.4,23.71-38.89,20.55-40.12-.27-.16-2.69.14-6.58.19-9.42.05-3.12.2-6.22.27-9.34.01-.5-.18-1.03.11-1.52-17.83-7.8-27.22-22.41-27.61-41.44-.58-.06-1.1-.38-1.62-.62-14.33-6.69-14.04-21.02.22-27.61.42-.2.91-.66,1.48-.49.16,1.32.45,2.63.63,3.95l.04.23.25-.05c4.02-.37,7.4-4.08,9.82-7.11,5.65-7.1,8.7-16.63,9.45-25.54,18.02,14.23,38.61,19.92,61.26,19.11,3.73-.13,7.86-1.08,11.54-.83.53.04,1.05-.02,1.58.06v11.05c.72-.21.93.23,1.43.47,13.58,6.36,14.5,20.89.28,26.73-.55.22-.96.51-1.6.43-1.05,18.19-11.04,33.69-27.75,41.47.45.48.24,1.32.25,1.92.05,2.76,0,5.53.14,8.29l.1.15Z"/>
          <path class="cls-1" d="M100.27,107.68c.22-.03.49-.16.67-.15.07,0,.15-.02.22-.05-1.19,2.64-1.84,5.98-3.68,8.26-5.89,7.3-17.55,6-21.61-2.43,8-1.42,16.44-4.47,24.4-5.63Z"/>
          <path class="cls-6" d="M105.92,82.87c.09-.03.18-.06.27-.09,4.96-1.43,7.42,6.05,2.48,7.79s-7.76-5.94-2.75-7.71Z"/>
          <path class="cls-2" d="M65.44,82.86c.09-.02.17-.03.26-.05,5.12-.78,6.49,7,1.33,7.95s-6.66-6.81-1.59-7.91Z"/>
        </g>
      </g>
      <g>
        <path class="cls-4" d="M132.64,55.56c-3.68-.25-7.81.69-11.54.83-22.65.81-43.24-4.88-61.26-19.11-.76,8.91-3.81,18.44-9.45,25.54-2.41,3.03-5.79,6.74-9.82,7.11l-.25.05"/>
        <path class="cls-3" d="M96.66,81c5.41-7.87,16.02-8.76,22.33-1.5"/>
        <path class="cls-4" d="M135.66,67.14c13.58,6.36,14.5,20.89.28,26.73"/>
        <path class="cls-5" d="M65,146.75c-3.44-.19-21.7.36-23.07-.42-7.23-4.15-17.63-24.26-20.45-32.39-5.31-15.31-6.05-46.71-1.36-62.21C37.84-6.75,115.84-15.47,146.39,37.47c12.15,21.06,11.75,61.3,2.04,83.25-2.7,6.09-12.18,22.52-17.6,25.61-1.03.59-22.93.65-23.75-.21l-.1-.15c-.13-2.76-.09-5.53-.14-8.29"/>
        <path class="cls-4" d="M76.88,79.76c-6.46-7.59-16.87-7.23-23.06.47"/>
        <line class="cls-4" x1="35.83" y1="232.02" x2="35.58" y2="210.3"/>
        <line class="cls-4" x1="137.39" y1="232.02" x2="137.39" y2="210.3"/>
        <path class="cls-4" d="M107.53,156.46c33.22,2.11,60.22,28.3,63.02,61.53.14,1.66.38,14.26.09,15.03-.1.26-.12.45-.46.48l-167.94-.13c-2.04-23.53,5.36-45.34,23.62-61.08,12.93-11.15,23.46-12.94,39.35-15.78"/>
        <path class="cls-4" d="M134.22,49.69v16.98c0,8.87.62,18.94.12,27.63-1.05,18.19-11.04,33.69-27.75,41.47-12.25,5.71-27.11,5.56-39.39.18-17.83-7.8-27.22-22.41-27.61-41.44-.17-8.2.41-16.35.74-24.54"/>
        <path class="cls-4" d="M38.19,66.27c-14.27,6.59-14.55,20.92-.22,27.61"/>
        <path class="cls-4" d="M67.08,137.46c-.07,3.11-.22,6.22-.27,9.34-.05,2.84-.35,6.73-.19,9.42,1.23,20.83,35.72,23.98,40.12.27.74-3.99-.73-7.07-.49-9.54"/>
        <path class="cls-5" d="M39.29,61.46c.12,1.45.19,2.88.37,4.33.16,1.32.45,2.63.63,3.95l.04.23"/>
      </g>
    </g>
  </g>
</svg>