<?xml version="1.0" encoding="UTF-8"?>
<svg id="Livello_2" data-name="Livello 2" xmlns="http://www.w3.org/2000/svg" viewBox="0 0 44.24 49.35">
  <defs>
    <style>
      .cls-1 {
        fill: #26282d;
      }

      .cls-2 {
        stroke: #121316;
      }

      .cls-2, .cls-3, .cls-4, .cls-5 {
        fill: none;
        stroke-linecap: round;
        stroke-linejoin: round;
        stroke-width: .9px;
      }

      .cls-6 {
        fill: #deeecd;
      }

      .cls-7 {
        fill: #94cafb;
      }

      .cls-3 {
        stroke: #131318;
      }

      .cls-8 {
        fill: #feb38f;
      }

      .cls-4 {
        stroke: #131317;
      }

      .cls-5 {
        stroke: #141418;
      }
    </style>
  </defs>
  <g id="Livello_1-2" data-name="Livello 1">
    <g id="Oggetto_generativo" data-name="Oggetto generativo">
      <g>
        <path class="cls-7" d="M16.67,32.52c.37,7.66,10.71,7.16,10.81-.11l.6-.03c7.32.07,14.46,5.59,15.51,13.01.33,2.32.49,2.88-1.92,3.05-11.2.78-26.26.42-37.61,0-.51-.02-3.06-.06-3.28-.21-.78-.56,0-4.2.28-5.06,2.1-6.47,8.25-10.71,14.95-10.66.22,0,.43-.01.65.02Z"/>
        <path class="cls-8" d="M30.55,12.5c-.93-.29-4.27-2.12-4.52-2.12-.56,0-1.81,1.98-2.3,1.91-.54-.08-3.11-2.6-3.89-2.93l-1.41,3.24c-.92-.74-1.84-1.5-2.73-2.27-.23-.2-.43-.48-.73-.58-.21,2.72-1.52,4.23-2.11,6.49-.19-.27-.47.21-.52.2-.07-.02-.22-.3-.33-.41-.08-.08-.13-.2-.21-.28-2.24-2.64-3.56-6.81-.81-9.62.88-.9,2.04-1.12,2.91-1.87,1.66-1.44,1-2.6,4.12-3.45,7.59-2.05,17.57,4.73,18,12.72-.1.26-5.03-.9-5.46-1.04Z"/>
        <g>
          <path class="cls-6" d="M30.55,12.5c-.03.24.06.45.11.68.15.74.37,1.47.47,2.22.3-.06.51.14.76.23,1.84.72,3.36,1.35,3.07,3.74-.23,1.91-1.29,2.45-2.96,2.9-.21.06-.6.22-.77.05-.58,1.77-2.64,4.55-4.11,5.65.26.14.14.43.15.66.05,1.17.24,2.67.23,3.77-.11,7.27-10.45,7.77-10.81.11-.06-1.19.16-2.65.19-3.88,0-.29-.11-.59.09-.85-1.66-1.31-3.46-3.54-4.09-5.59-.18.16-.41.05-.61.02-3.69-.71-4.26-4.65-.97-6.18l.51-.28c.07.09.13.2.21.28.11.11.25.4.33.41.04,0,.33-.47.52-.2.59-2.26,1.9-3.78,2.11-6.49.31.1.5.38.73.58.89.78,1.81,1.53,2.73,2.27l1.41-3.24c.78.33,3.35,2.85,3.89,2.93.49.07,1.74-1.9,2.3-1.91.25,0,3.59,1.82,4.52,2.12Z"/>
          <path class="cls-1" d="M25.92,17.74c2.54-.41,1.51,3.43-.35,2.23-.81-.52-.64-2.07.35-2.23Z"/>
          <path class="cls-1" d="M17.48,17.74c2.48-.4,1.5,3.42-.35,2.23-.82-.53-.66-2.06.35-2.23Z"/>
        </g>
      </g>
      <g>
        <line class="cls-2" x1="27.85" y1="15.93" x2="24.57" y2="15.57"/>
        <path class="cls-5" d="M25.28,23.73c-1.84,1.77-3.63,2.01-5.82.7"/>
        <line class="cls-4" x1="19.88" y1="15.56" x2="16.6" y2="15.68"/>
        <line class="cls-3" x1="35.34" y1="47.85" x2="35.49" y2="43.87"/>
        <line class="cls-3" x1="8.64" y1="47.85" x2="8.64" y2="43.87"/>
        <path class="cls-3" d="M16.02,32.51c-6.7-.05-12.85,4.2-14.95,10.66-.28.86-1.06,4.5-.28,5.06.22.16,2.77.19,3.28.21,11.36.42,26.41.78,37.61,0,2.41-.17,2.25-.72,1.92-3.05-1.05-7.42-8.2-12.95-15.51-13.01"/>
        <path class="cls-3" d="M14.55,4.74c.09,1.64.53,3.38.4,5.02-.21,2.72-1.52,4.23-2.11,6.49-.28,1.07-.31,4.89.01,5.95.63,2.05,2.43,4.28,4.09,5.59,2.74,2.17,7.31,2.31,10.16.19,1.47-1.1,3.53-3.88,4.11-5.65.35-1.07.08-5.63-.09-6.92-.1-.75-.32-1.48-.47-2.22"/>
        <path class="cls-3" d="M31.99,22.28c1.67-.44,2.73-.98,2.96-2.9.29-2.39-1.24-3.02-3.07-3.74"/>
        <path class="cls-3" d="M15.69,10.33c.89.78,1.81,1.53,2.73,2.27l1.41-3.24c.78.33,3.35,2.85,3.89,2.93.49.07,1.74-1.9,2.3-1.91.25,0,3.59,1.82,4.52,2.12.43.13,5.36,1.3,5.46,1.04-.43-7.99-10.41-14.77-18-12.72-3.13.85-2.46,2.01-4.12,3.45-.87.75-2.03.97-2.91,1.87-2.75,2.81-1.42,6.98.81,9.62.07.09.13.2.21.28"/>
        <path class="cls-3" d="M27.26,28.64c.05,1.17.24,2.67.23,3.77-.11,7.27-10.45,7.77-10.81.11-.06-1.19.16-2.65.19-3.88"/>
        <path class="cls-3" d="M11.28,16.03c-3.29,1.53-2.73,5.48.97,6.18"/>
      </g>
    </g>
  </g>
</svg>